HIERARCHY
ROOT Hips
{
	OFFSET 0.00000 0.00000 0.00000
	CHANNELS 6 Xposition Yposition Zposition Zrotation Yrotation Xrotation 
	JOINT LHipJoint
	{
		OFFSET 0 0 0
		CHANNELS 3 Zrotation Yrotation Xrotation
		JOINT LeftUpLeg
		{
			OFFSET 1.38615 -1.80049 0.80104
			CHANNELS 3 Zrotation Yrotation Xrotation
			JOINT LeftLeg
			{
				OFFSET 2.50172 -6.87341 0.00000
				CHANNELS 3 Zrotation Yrotation Xrotation
				JOINT LeftFoot
				{
					OFFSET 2.67523 -7.35014 0.00000
					CHANNELS 3 Zrotation Yrotation Xrotation
					JOINT LeftToeBase
					{
						OFFSET 0.17446 -0.47932 2.13155
						CHANNELS 3 Zrotation Yrotation Xrotation
						End Site
						{
							OFFSET 0.00000 -0.00000 1.10023
						}
					}
				}
			}
		}
	}
	JOINT RHipJoint
	{
		OFFSET 0 0 0
		CHANNELS 3 Zrotation Yrotation Xrotation
		JOINT RightUpLeg
		{
			OFFSET -1.18047 -1.80049 0.80104
			CHANNELS 3 Zrotation Yrotation Xrotation
			JOINT RightLeg
			{
				OFFSET -2.59789 -7.13765 0.00000
				CHANNELS 3 Zrotation Yrotation Xrotation
				JOINT RightFoot
				{
					OFFSET -2.62125 -7.20183 0.00000
					CHANNELS 3 Zrotation Yrotation Xrotation
					JOINT RightToeBase
					{
						OFFSET -0.31287 -0.85960 2.07814
						CHANNELS 3 Zrotation Yrotation Xrotation
						End Site
						{
							OFFSET -0.00000 -0.00000 1.11766
						}
					}
				}
			}
		}
	}
	JOINT LowerBack
	{
		OFFSET 0 0 0
		CHANNELS 3 Zrotation Yrotation Xrotation
		JOINT Spine
		{
			OFFSET -0.01587 2.16157 -0.12309
			CHANNELS 3 Zrotation Yrotation Xrotation
			JOINT Spine1
			{
				OFFSET 0.04727 2.16674 -0.03569
				CHANNELS 3 Zrotation Yrotation Xrotation
				JOINT Neck
				{
					OFFSET 0 0 0
					CHANNELS 3 Zrotation Yrotation Xrotation
					JOINT Neck1
					{
						OFFSET -0.08586 1.60335 0.32783
						CHANNELS 3 Zrotation Yrotation Xrotation
						JOINT Head
						{
							OFFSET 0.07583 1.65857 -0.31618
							CHANNELS 3 Zrotation Yrotation Xrotation
							End Site
							{
								OFFSET 0.03386 1.69434 -0.14584
							}
						}
					}
				}
				JOINT LeftShoulder
				{
					OFFSET 0 0 0
					CHANNELS 3 Zrotation Yrotation Xrotation
					JOINT LeftArm
					{
						OFFSET 3.17393 1.01901 -0.52897
						CHANNELS 3 Zrotation Yrotation Xrotation
						JOINT LeftForeArm
						{
							OFFSET 5.25287 -0.00000 -0.00000
							CHANNELS 3 Zrotation Yrotation Xrotation
							JOINT LeftHand
							{
								OFFSET 3.51014 -0.00000 0.00000
								CHANNELS 3 Zrotation Yrotation Xrotation
								JOINT LeftFingerBase
								{
									OFFSET 0 0 0
									CHANNELS 3 Zrotation Yrotation Xrotation
									JOINT LeftHandIndex1
									{
										OFFSET 0.70618 -0.00000 -0.00000
										CHANNELS 3 Zrotation Yrotation Xrotation
										End Site
										{
											OFFSET 0.56934 -0.00000 -0.00000
										}
									}
								}
								JOINT LThumb
								{
									OFFSET 0 0 0
									CHANNELS 3 Zrotation Yrotation Xrotation
									End Site
									{
										OFFSET 0.57803 -0.00000 0.57803
									}
								}
							}
						}
					}
				}
				JOINT RightShoulder
				{
					OFFSET 0 0 0
					CHANNELS 3 Zrotation Yrotation Xrotation
					JOINT RightArm
					{
						OFFSET -2.99471 1.26495 -0.61125
						CHANNELS 3 Zrotation Yrotation Xrotation
						JOINT RightForeArm
						{
							OFFSET -5.28721 -0.00000 -0.00000
							CHANNELS 3 Zrotation Yrotation Xrotation
							JOINT RightHand
							{
								OFFSET -3.50544 -0.00000 0.00000
								CHANNELS 3 Zrotation Yrotation Xrotation
								JOINT RightFingerBase
								{
									OFFSET 0 0 0
									CHANNELS 3 Zrotation Yrotation Xrotation
									JOINT RightHandIndex1
									{
										OFFSET -0.88500 -0.00000 -0.00000
										CHANNELS 3 Zrotation Yrotation Xrotation
										End Site
										{
											OFFSET -0.71351 -0.00000 -0.00000
										}
									}
								}
								JOINT RThumb
								{
									OFFSET 0 0 0
									CHANNELS 3 Zrotation Yrotation Xrotation
									End Site
									{
										OFFSET -0.72440 -0.00000 0.72440
									}
								}
							}
						}
					}
				}
			}
		}
	}
}
MOTION
Frames: 12
Frame Time: .0083333
11.6318 17.8970 -16.0597 4.0573 -76.4051 4.1715 0.0000 0.0000 0.0000 -19.5448 5.9284 -3.6641 0.0732 1.7457 4.8034 0.2086 -1.3688 -8.2559 0.4114 -4.1175 -11.4076 0.0000 0.0000 0.0000 19.5738 -0.3110 -11.1963 -1.8715 -8.5931 24.5304 -1.3684 -3.4657 -23.5853 -0.1583 2.5637 -7.0662 -2.3878 1.2136 -0.1718 3.2721 1.6199 -2.3475 4.6877 0.8831 -2.4833 -1.5174 8.1092 -22.6152 -3.7698 12.6917 20.1044 0.8425 5.1975 10.3147 -0.0000 -0.0000 0.0000 -88.5063 1.3152 22.2655 18.8242 -29.1996 -4.9448 -0.0000 -0.0000 12.4170 -2.2510 36.9736 -1.3543 -7.1250 0.0000 -0.0000 -42.9947 61.5906 -19.2944 -0.0000 -0.0000 0.0000 85.4859 -2.3352 10.7981 -19.0521 29.4834 -5.0565 0.0000 -0.0000 -4.7950 -11.8782 13.5865 -2.8287 7.1250 -0.0000 -0.0000 10.6268 -16.2597 7.3553
11.6408 17.8951 -16.0625 3.6114 -76.3431 4.4272 0.0000 0.0000 0.0000 -19.3712 5.8286 -3.8058 0.0928 1.9646 5.4078 0.2274 -1.7175 -8.5713 0.3950 -4.0353 -11.1761 0.0000 0.0000 0.0000 19.7129 -0.4133 -11.1594 -1.8986 -8.6516 24.7113 -1.3756 -3.4940 -23.6565 -0.1536 2.5255 -6.9604 -2.2928 1.2306 0.0750 3.3113 1.6426 -2.3367 4.6692 0.8950 -2.6116 -1.6119 8.0709 -22.6865 -3.6827 12.6695 20.3382 0.8922 5.1774 10.3991 0.0000 0.0000 0.0000 -88.3771 1.5379 22.8130 18.8760 -29.2643 -4.9701 -0.0000 -0.0000 12.0254 -2.4035 37.4251 -1.4612 -7.1250 0.0000 -0.0000 -43.7021 61.8839 -19.9851 0.0000 0.0000 0.0000 85.4676 -2.3644 10.4702 -18.9921 29.4089 -5.0270 0.0000 -0.0000 -4.4756 -12.0997 13.7722 -2.9215 7.1250 -0.0000 -0.0000 10.4722 -16.0587 7.2910
11.6453 17.8926 -16.0664 3.7579 -76.3839 4.0682 0.0000 0.0000 0.0000 -19.3522 5.8080 -3.9952 0.1211 2.2430 6.1776 0.2616 -1.7385 -9.2104 0.4528 -4.3171 -11.9705 0.0000 0.0000 0.0000 19.7041 -0.4035 -11.0061 -1.9168 -8.6905 24.8319 -1.3702 -3.6165 -23.6754 -0.1680 2.6404 -7.2792 -2.3510 1.2599 0.2496 3.3578 1.6802 -2.2512 4.7469 0.9150 -2.6289 -1.8798 8.0166 -22.7169 -3.6242 12.6724 20.3772 0.9548 5.1621 10.3969 0.0000 0.0000 0.0000 -88.6362 1.4436 22.1118 18.6511 -28.9829 -4.8606 -0.0000 -0.0000 12.7328 -2.8510 37.2463 -1.7264 -7.1250 0.0000 -0.0000 -43.8982 61.6392 -19.8407 0.0000 0.0000 0.0000 85.4130 -2.2305 10.1539 -18.8793 29.2684 -4.9717 0.0000 -0.0000 -4.1692 -12.9142 13.5420 -3.0733 7.1250 -0.0000 -0.0000 9.9199 -16.2334 6.8560
11.6497 17.8929 -16.0673 2.8978 -76.2520 4.8019 0.0000 0.0000 0.0000 -19.0565 5.6250 -4.1900 0.1439 2.4447 6.7364 0.2823 -1.7617 -9.5759 0.4669 -4.3825 -12.1554 0.0000 0.0000 0.0000 19.9350 -0.3832 -10.9619 -1.9359 -8.7314 24.9586 -1.3732 -3.6926 -23.7380 -0.1652 2.6184 -7.2182 -2.2077 1.1482 0.2958 3.4712 1.5328 -2.1995 4.7879 0.8372 -2.5859 -1.8221 8.1143 -22.6904 -3.6986 12.8078 20.3882 0.9408 5.2184 10.4071 0.0000 0.0000 0.0000 -88.8066 1.3102 21.2151 18.3959 -28.6611 -4.7376 -0.0000 -0.0000 13.1902 -2.7417 37.3012 -1.6623 -7.1250 0.0000 -0.0000 -43.8642 61.7071 -19.8923 0.0000 0.0000 0.0000 85.4005 -2.0737 9.9687 -18.7833 29.1486 -4.9249 0.0000 -0.0000 -4.1926 -13.4271 13.2378 -3.1292 7.1250 -0.0000 -0.0000 9.5725 -16.5040 6.5517
11.6588 17.8939 -16.0667 2.4527 -75.9983 5.2384 0.0000 0.0000 0.0000 -18.8690 5.2752 -4.4714 0.1679 2.6401 7.2784 0.2977 -1.9702 -9.8100 0.3941 -4.0310 -11.1639 0.0000 0.0000 0.0000 20.0395 -0.3756 -11.0284 -1.9527 -8.7669 25.0690 -1.3752 -3.8136 -23.8158 -0.1532 2.5225 -6.9519 -2.0799 1.0672 0.3522 3.4160 1.4261 -2.2426 4.6594 0.7821 -2.6462 -1.5304 8.1491 -22.5443 -3.6786 12.7453 20.3460 0.8873 5.2222 10.3817 0.0000 0.0000 0.0000 -88.5849 1.3227 20.9522 18.2401 -28.4635 -4.6631 -0.0000 -0.0000 13.2177 -2.2920 37.5775 -1.3982 -7.1250 0.0000 -0.0000 -43.7908 62.0240 -20.1792 0.0000 0.0000 0.0000 85.6239 -2.1305 9.5205 -18.8077 29.1790 -4.9367 0.0000 -0.0000 -4.6067 -13.2346 13.1276 -3.0576 7.1250 -0.0000 -0.0000 9.7061 -16.6287 6.6192
11.6658 17.8931 -16.0654 2.8418 -75.8614 4.9064 0.0000 0.0000 0.0000 -18.9642 5.0125 -4.7954 0.1951 2.8442 7.8452 0.3168 -2.0600 -10.1154 0.4346 -4.2305 -11.7262 0.0000 0.0000 0.0000 19.8749 -0.3252 -11.1114 -1.9694 -8.8019 25.1777 -1.3999 -3.6927 -23.9474 -0.1026 2.0653 -5.6862 -2.1304 1.0861 0.3165 3.2952 1.4504 -2.2846 4.5615 0.7956 -2.6696 -1.4120 8.0982 -22.3122 -3.5628 12.5901 20.2522 0.8729 5.1873 10.3020 -0.0000 0.0000 0.0000 -88.4227 1.4549 20.8815 18.2053 -28.4193 -4.6465 -0.0000 -0.0000 13.2186 -1.5798 38.1244 -0.9754 -7.1250 0.0000 -0.0000 -43.8272 62.6077 -20.7991 -0.0000 0.0000 0.0000 85.8113 -2.3442 9.0828 -18.9303 29.3320 -4.9967 0.0000 -0.0000 -5.3257 -12.9616 13.1589 -2.9994 7.1250 -0.0000 -0.0000 9.8930 -16.6159 6.7533
11.6728 17.8919 -16.0625 2.3127 -75.7965 5.4244 0.0000 0.0000 0.0000 -18.8612 4.8778 -5.0303 0.2184 3.0083 8.3018 0.3354 -2.2067 -10.3967 0.5004 -4.5351 -12.5872 0.0000 0.0000 0.0000 19.9471 -0.4037 -11.2371 -1.9907 -8.8467 25.3171 -1.4332 -3.3103 -24.0173 -0.0648 1.6429 -4.5198 -2.1527 0.5557 0.2708 3.8322 0.7426 -2.2300 5.1576 0.4411 -2.5292 -2.4245 8.5264 -22.3196 -3.3167 13.4587 20.2938 1.2380 5.5341 10.2351 -0.0000 0.0000 0.0000 -89.5319 1.6865 18.7548 18.2204 -28.4385 -4.6537 -0.0000 -0.0000 13.5974 -1.3160 38.8625 -0.8258 -7.1250 0.0000 -0.0000 -44.5703 63.2109 -21.8515 -0.0000 0.0000 0.0000 84.7711 -2.1561 10.4794 -18.8688 29.2553 -4.9666 0.0000 -0.0000 -5.9040 -13.0345 12.8598 -2.9495 7.1250 -0.0000 -0.0000 9.8479 -16.9122 6.6570
11.6857 17.8894 -16.0642 2.3261 -75.7071 5.3151 0.0000 0.0000 0.0000 -18.8759 4.7402 -5.1611 0.2411 3.1597 8.7236 0.3434 -2.3177 -10.5094 0.4757 -4.4232 -12.2705 0.0000 0.0000 0.0000 19.9273 -0.7024 -11.3907 -2.0163 -8.9000 25.4829 -1.4364 -3.0559 -23.9200 -0.0638 1.6291 -4.4817 -2.3814 -0.5296 0.4083 4.7912 -0.7168 -2.0649 6.3354 -0.2921 -2.2710 -4.6146 9.3306 -22.7438 -2.8361 15.1932 20.2876 1.9849 6.2090 10.0968 -0.0000 0.0000 0.0000 -91.5976 1.8689 14.8485 18.3168 -28.5610 -4.6997 -0.0000 -0.0000 14.2399 -1.5349 39.3496 -0.9734 -7.1250 0.0000 -0.0000 -45.4539 63.4990 -22.6794 -0.0000 0.0000 0.0000 82.7962 -1.3564 13.4752 -18.6087 28.9295 -4.8401 0.0000 -0.0000 -6.2266 -13.5496 12.2185 -2.9198 7.1250 -0.0000 -0.0000 9.5031 -17.5257 6.2878
11.6949 17.8845 -16.0692 2.5892 -75.6746 4.9225 0.0000 0.0000 0.0000 -18.9332 4.6703 -5.2581 0.2634 3.3016 9.1196 0.3430 -2.2443 -10.5138 0.4157 -4.1384 -11.4665 0.0000 0.0000 0.0000 19.8513 -0.8566 -11.4314 -2.0450 -8.9592 25.6678 -1.4433 -2.9191 -23.9090 -0.0605 1.5870 -4.3655 -2.2000 0.5418 0.4459 3.8245 0.7210 -1.9847 5.1755 0.4254 -2.3725 -2.6774 8.4656 -22.6784 -3.1169 13.4355 20.4316 1.3604 5.5140 10.3149 -0.0000 -0.0000 0.0000 -89.4997 1.5013 18.3967 18.0857 -28.2668 -4.5898 -0.0000 -0.0000 13.8351 -1.3055 39.3490 -0.8278 -7.1250 0.0000 -0.0000 -45.2373 63.5609 -22.6127 -0.0000 -0.0000 0.0000 84.9564 -1.6871 9.1647 -18.7055 29.0511 -4.8870 0.0000 -0.0000 -5.6978 -14.2556 12.1097 -3.0510 7.1250 -0.0000 -0.0000 9.0150 -17.5895 5.9435
11.6979 17.8776 -16.0726 2.0870 -75.6978 5.2537 0.0000 0.0000 0.0000 -18.7756 4.6969 -5.3065 0.2838 3.4261 9.4674 0.3529 -2.1199 -10.6867 0.3426 -3.7610 -10.4051 0.0000 0.0000 0.0000 19.9738 -0.8189 -11.3532 -2.0745 -9.0196 25.8566 -1.4602 -2.8587 -24.0120 -0.0606 1.5882 -4.3689 -1.8918 1.3767 0.5422 3.1243 1.8382 -1.8811 4.2344 0.9750 -2.4024 -1.1835 7.8409 -23.0272 -3.2600 12.1404 20.7523 0.9173 5.0006 10.5997 0.0000 -0.0000 0.0000 -87.8825 1.0393 21.1399 17.8915 -28.0180 -4.4982 -0.0000 -0.0000 13.3408 -0.8386 39.4954 -0.5334 -7.1250 0.0000 -0.0000 -45.0050 63.7924 -22.7107 0.0000 -0.0000 0.0000 86.6344 -1.7224 5.6822 -18.7301 29.0819 -4.8990 0.0000 -0.0000 -5.0968 -14.7111 12.4484 -3.2392 7.1250 -0.0000 -0.0000 8.6954 -17.2141 5.8002
11.7001 17.8722 -16.0763 2.0999 -75.6916 5.0800 0.0000 0.0000 0.0000 -18.7562 4.9159 -5.3555 0.2984 3.5127 9.7095 0.3624 -2.5222 -10.7802 0.2936 -3.4842 -9.6298 0.0000 0.0000 0.0000 19.9432 -0.7879 -11.2876 -2.1087 -9.0889 26.0740 -1.4808 -2.7120 -24.1027 -0.0489 1.4277 -3.9265 -2.5565 -0.6176 0.6841 4.9918 -0.8447 -1.6869 6.6509 -0.3656 -2.0147 -4.9637 9.3870 -23.0792 -2.8020 15.4060 20.3277 2.0949 6.2719 10.1385 0.0000 0.0000 0.0000 -91.7428 1.7388 14.4174 18.2124 -28.4283 -4.6499 -0.0000 -0.0000 13.7661 -0.5117 40.5249 -0.3325 -7.1250 0.0000 -0.0000 -46.2096 64.6066 -24.3009 0.0000 0.0000 0.0000 82.7111 -0.6887 11.8089 -18.2183 28.4358 -4.6527 0.0000 -0.0000 -5.3977 -14.8151 12.5691 -3.2942 7.1250 -0.0000 -0.0000 8.6225 -17.0838 5.7753
11.7008 17.8673 -16.0781 1.8495 -75.6101 5.2127 0.0000 0.0000 0.0000 -18.6734 5.2323 -5.3618 0.2969 3.5038 9.6846 0.3591 -3.2474 -10.6699 0.3067 -3.5607 -9.8438 0.0000 0.0000 0.0000 19.9781 -0.9506 -11.3881 -2.1507 -9.1732 26.3387 -1.4967 -2.4607 -24.1118 -0.0391 1.2757 -3.5077 -1.8179 1.3497 0.6239 3.1096 1.8010 -1.6395 4.1788 0.9490 -2.1928 -0.9867 7.8309 -22.8631 -3.5489 12.0977 20.3448 0.7640 4.9816 10.4559 0.0000 -0.0000 0.0000 -87.8339 0.8710 20.6629 17.7121 -27.7869 -4.4142 -0.0000 -0.0000 13.3737 -0.4540 41.1513 -0.2988 -7.1250 0.0000 -0.0000 -47.1211 65.0542 -25.3535 0.0000 -0.0000 0.0000 86.5627 -1.6758 5.3020 -18.6787 29.0174 -4.8740 0.0000 -0.0000 -5.4338 -15.0198 12.3438 -3.2829 7.1250 -0.0000 -0.0000 8.4822 -17.2988 5.6388
